<svg width="14" height="16" viewBox="0 0 14 16" fill="none" xmlns="http://www.w3.org/2000/svg">
<path fill-rule="evenodd" clip-rule="evenodd" d="M7 2C10.866 2 14 5.13401 14 9C14 12.866 10.866 16 7 16C3.13401 16 0 12.866 0 9C0 5.13401 3.13401 2 7 2ZM7 4C4.23858 4 2 6.23858 2 9C2 11.7614 4.23858 14 7 14C9.76142 14 12 11.7614 12 9C12 6.23858 9.76142 4 7 4ZM7 6C7.55228 6 8 6.44772 8 7V9C8 9.55229 7.55228 10 7 10C6.44772 10 6 9.55229 6 9V7C6 6.44772 6.44772 6 7 6ZM10 0C10.5523 0 11 0.447715 11 1C11 1.55228 10.5523 2 10 2H4C3.44772 2 3 1.55228 3 1C3 0.447715 3.44772 0 4 0H10Z" fill="#6C737D"/>
</svg>
