<svg width="18" height="25" viewBox="0 0 18 25" fill="none" xmlns="http://www.w3.org/2000/svg">
<path d="M13.9004 0.0049025L3.90039 1.0049C3.39039 1.0559 3 1.48504 3 1.99904V2.99904H1C0.448 2.99904 0 3.44704 0 3.99904V5.99904H18V3.99904C18 3.44704 17.552 2.99904 17 2.99904H15V0.999043C15 0.716043 14.8819 0.447809 14.6719 0.258809C14.4619 0.0698088 14.1834 -0.0230975 13.9004 0.0049025ZM1 7.99904L2.79297 23.2334C2.91197 24.2404 3.7643 24.999 4.7793 24.999H13.2227C14.2367 24.999 15.089 24.2404 15.207 23.2334L17 7.99904H1ZM5 14.1553C5.552 14.1553 6 14.6033 6 15.1553C6 15.7073 5.552 16.1553 5 16.1553C4.448 16.1553 4 15.7073 4 15.1553C4 14.6033 4.448 14.1553 5 14.1553ZM13 14.1553C13.552 14.1553 14 14.6033 14 15.1553C14 15.7073 13.552 16.1553 13 16.1553C12.448 16.1553 12 15.7073 12 15.1553C12 14.6033 12.448 14.1553 13 14.1553ZM7 16.999H11C11 18.104 10.105 18.999 9 18.999C7.895 18.999 7 18.104 7 16.999Z" fill="#B5C7CB"/>
</svg>
